<?xml version="1.0" encoding="UTF-8" standalone="no"?>
<svg
   width="200"
   height="200"
   version="1.1"
   viewBox="0 0 150 150"
   id="svg1293"
   sodipodi:docname="deployment.svg"
   inkscape:version="1.1.2 (b8e25be8, 2022-02-05)"
   xmlns:inkscape="http://www.inkscape.org/namespaces/inkscape"
   xmlns:sodipodi="http://sodipodi.sourceforge.net/DTD/sodipodi-0.dtd"
   xmlns="http://www.w3.org/2000/svg"
   xmlns:svg="http://www.w3.org/2000/svg">
  <sodipodi:namedview
     id="namedview1295"
     pagecolor="#ffffff"
     bordercolor="#666666"
     borderopacity="1.0"
     inkscape:pageshadow="2"
     inkscape:pageopacity="0.0"
     inkscape:pagecheckerboard="false"
     inkscape:document-units="px"
     showgrid="false"
     inkscape:zoom="1.2526113"
     inkscape:cx="128.13232"
     inkscape:cy="152.88062"
     inkscape:window-width="1296"
     inkscape:window-height="969"
     inkscape:window-x="0"
     inkscape:window-y="25"
     inkscape:window-maximized="0"
     inkscape:current-layer="g1291"
     units="px"
     width="933.33331px" />
  <defs
     id="defs1237">
    <symbol
       id="m"
       overflow="visible">
      <path
         d="M 30.391,-1.8125 C 28.8285,-1 27.1957,-0.3906 25.5004,0.0156 c -1.6992,0.41406 -3.4688,0.625 -5.3125,0.625 -5.5117,0 -9.875,-1.5352 -13.094,-4.6094 -3.2188,-3.082 -4.8281,-7.2578 -4.8281,-12.531 0,-5.2891 1.6094,-9.4727 4.8281,-12.547 3.2188,-3.082 7.582,-4.625 13.094,-4.625 1.8438,0 3.6133,0.21094 5.3125,0.625 1.6953,0.40625 3.3281,1.0156 4.8906,1.8281 v 6.8438 c -1.5742,-1.0703 -3.1328,-1.8594 -4.6719,-2.3594 -1.5312,-0.50781 -3.1484,-0.76562 -4.8438,-0.76562 -3.043,0 -5.4375,0.98047 -7.1875,2.9375 -1.7422,1.9492 -2.6094,4.6367 -2.6094,8.0625 0,3.4062 0.86719,6.0898 2.6094,8.0469 1.75,1.9492 4.1445,2.9219 7.1875,2.9219 1.6953,0 3.3125,-0.25 4.8438,-0.75 1.5391,-0.50781 3.0977,-1.3008 4.6719,-2.375 z"
         id="path1198" />
    </symbol>
    <symbol
       id="h"
       overflow="visible">
      <path
         d="m 22.25,-18.062 c -0.69922,-0.32031 -1.3906,-0.5625 -2.0781,-0.71875 -0.6875,-0.15625 -1.3828,-0.23438 -2.0781,-0.23438 -2.0312,0 -3.6016,0.65625 -4.7031,1.9688 -1.0938,1.3047 -1.6406,3.1719 -1.6406,5.6094 v 11.438 H 3.8126 v -24.812 h 7.9375 v 4.0781 c 1.0078,-1.625 2.1758,-2.8047 3.5,-3.5469 1.3203,-0.75 2.9062,-1.125 4.75,-1.125 0.26953,0 0.5625,0.01172 0.875,0.03125 0.3125,0.02344 0.75781,0.07031 1.3438,0.14062 z"
         id="path1201" />
    </symbol>
    <symbol
       id="c"
       overflow="visible">
      <path
         d="m 28.578,-12.469 v 2.25 H 10.031 c 0.19531,1.8672 0.86719,3.2656 2.0156,4.2031 1.1562,0.92969 2.7656,1.3906 4.8281,1.3906 1.6758,0 3.3906,-0.24219 5.1406,-0.73438 1.75,-0.5 3.5469,-1.2539 5.3906,-2.2656 v 6.125 c -1.875,0.71094 -3.75,1.2422 -5.625,1.5938 -1.875,0.36328 -3.75,0.54688 -5.625,0.54688 -4.4922,0 -7.9805,-1.1406 -10.469,-3.4219 -2.4922,-2.2812 -3.7344,-5.4844 -3.7344,-9.6094 0,-4.0391 1.2188,-7.2188 3.6562,-9.5312 2.4453,-2.3203 5.8125,-3.4844 10.094,-3.4844 3.9062,0 7.0234,1.1797 9.3594,3.5312 2.3438,2.3438 3.5156,5.4805 3.5156,9.4062 z m -8.1562,-2.6406 c 0,-1.5078 -0.4375,-2.7227 -1.3125,-3.6406 -0.875,-0.92578 -2.0234,-1.3906 -3.4375,-1.3906 -1.543,0 -2.793,0.43359 -3.75,1.2969 -0.96094,0.86719 -1.5586,2.1094 -1.7969,3.7344 z"
         id="path1204" />
    </symbol>
    <symbol
       id="b"
       overflow="visible">
      <path
         d="m 14.938,-11.172 c -1.6562,0 -2.9023,0.28125 -3.7344,0.84375 -0.83594,0.5625 -1.25,1.3906 -1.25,2.4844 0,1 0.33203,1.7891 1,2.3594 0.67578,0.57422 1.6133,0.85938 2.8125,0.85938 1.4883,0 2.7383,-0.53516 3.75,-1.6094 1.0195,-1.0703 1.5312,-2.4141 1.5312,-4.0312 v -0.90625 z m 12.109,-2.9844 V -4e-4 h -8 v -3.6719 c -1.0625,1.5 -2.2617,2.5938 -3.5938,3.2812 -1.3242,0.6875 -2.9375,1.0312 -4.8438,1.0312 -2.5742,0 -4.6641,-0.75 -6.2656,-2.25 -1.5938,-1.5 -2.3906,-3.4414 -2.3906,-5.8281 0,-2.9141 1,-5.0508 3,-6.4062 2,-1.3633 5.1406,-2.0469 9.4219,-2.0469 h 4.6719 v -0.60938 c 0,-1.2578 -0.49609,-2.1797 -1.4844,-2.7656 -0.99219,-0.58203 -2.5312,-0.875 -4.625,-0.875 -1.6992,0 -3.2812,0.17188 -4.75,0.51562 -1.4609,0.33594 -2.8125,0.84375 -4.0625,1.5312 v -6.0625 c 1.6953,-0.40625 3.3984,-0.71094 5.1094,-0.92188 1.7188,-0.21875 3.4297,-0.32812 5.1406,-0.32812 4.4766,0 7.707,0.88281 9.6875,2.6406 1.9883,1.7617 2.9844,4.6328 2.9844,8.6094 z"
         id="path1207" />
    </symbol>
    <symbol
       id="g"
       overflow="visible">
      <path
         d="m 12.469,-31.859 v 7.0469 h 8.1875 v 5.6719 H 12.469 v 10.516 c 0,1.1562 0.22656,1.9375 0.6875,2.3438 0.45703,0.40625 1.3672,0.60938 2.7344,0.60938 h 4.0781 v 5.6719 h -6.8125 c -3.125,0 -5.3438,-0.64844 -6.6562,-1.9531 -1.3047,-1.3125 -1.9531,-3.5352 -1.9531,-6.6719 v -10.516 H 0.5941 v -5.6719 h 3.9531 v -7.0469 z"
         id="path1210" />
    </symbol>
    <symbol
       id="f"
       overflow="visible">
      <path
         d="m 20.688,-21.188 v -13.281 h 7.9844 V 0 H 20.688 V -3.5938 C 19.5942,-2.125 18.3911,-1.0508 17.0786,-0.375 15.7661,0.3008 14.2427,0.6406 12.5161,0.6406 9.4614,0.6406 6.9536,-0.5703 4.9849,-3 3.0161,-5.4258 2.0318,-8.5547 2.0318,-12.3906 c 0,-3.8203 0.98438,-6.9453 2.9531,-9.375 1.9688,-2.4258 4.4766,-3.6406 7.5312,-3.6406 1.7188,0 3.2344,0.34375 4.5469,1.0312 1.3203,0.67969 2.5312,1.7422 3.625,3.1875 z m -5.2188,16.062 c 1.6953,0 2.9883,-0.61719 3.875,-1.8594 0.89453,-1.2383 1.3438,-3.0391 1.3438,-5.4062 0,-2.3633 -0.44922,-4.1641 -1.3438,-5.4062 -0.88672,-1.2383 -2.1797,-1.8594 -3.875,-1.8594 -1.6875,0 -2.9805,0.62109 -3.875,1.8594 -0.88672,1.2422 -1.3281,3.043 -1.3281,5.4062 0,2.3672 0.44141,4.168 1.3281,5.4062 0.89453,1.2422 2.1875,1.8594 3.875,1.8594 z"
         id="path1213" />
    </symbol>
    <symbol
       id="e"
       overflow="visible">
      <path
         d="m 17.016,-5.125 c 1.6953,0 2.9922,-0.61719 3.8906,-1.8594 0.89453,-1.2383 1.3438,-3.0391 1.3438,-5.4062 0,-2.3633 -0.44922,-4.1641 -1.3438,-5.4062 -0.89844,-1.2383 -2.1953,-1.8594 -3.8906,-1.8594 -1.6992,0 -3,0.625 -3.9062,1.875 -0.9062,1.25 -1.3594,3.0469 -1.3594,5.3906 0,2.3555 0.45312,4.1562 1.3594,5.4062 0.90625,1.2422 2.207,1.8594 3.9062,1.8594 z m -5.2656,-16.062 c 1.082,-1.4453 2.2891,-2.5078 3.625,-3.1875 1.332,-0.6875 2.8633,-1.0312 4.5938,-1.0312 3.0508,0 5.5547,1.2148 7.5156,3.6406 1.9688,2.4297 2.9531,5.5547 2.9531,9.375 0,3.8359 -0.98438,6.9648 -2.9531,9.3906 -1.9609,2.4297 -4.4648,3.6406 -7.5156,3.6406 -1.7305,0 -3.2617,-0.34375 -4.5938,-1.0312 -1.3359,-0.6875 -2.543,-1.7539 -3.625,-3.2031 V 6e-4 H 3.8129 v -34.469 h 7.9375 z"
         id="path1216" />
    </symbol>
    <symbol
       id="a"
       overflow="visible">
      <path
         d="m 0.54688,-24.812 h 7.9375 l 6.6719,16.844 5.6719,-16.844 h 7.9375 l -10.438,27.156 c -1.0547,2.7578 -2.2773,4.6914 -3.6719,5.7969 -1.3984,1.1016 -3.2422,1.6562 -5.5312,1.6562 H 4.54648 V 4.594 h 2.4688 c 1.3516,0 2.332,-0.21875 2.9375,-0.65625 0.61328,-0.42969 1.0938,-1.1953 1.4375,-2.2969 l 0.21875,-0.6875 z"
         id="path1219" />
    </symbol>
    <symbol
       id="d"
       overflow="visible">
      <path
         d="m 4.1719,-33.078 h 23.016 v 6.4531 h -14.5 v 6.1562 h 13.641 v 6.4375 h -13.641 v 7.5781 h 14.984 V 0 h -23.5 z"
         id="path1222" />
    </symbol>
    <symbol
       id="l"
       overflow="visible">
      <path
         d="m 3.5469,-9.6562 v -15.156 h 7.9688 v 2.4844 c 0,1.3438 -0.0078,3.0312 -0.01563,5.0625 -0.01172,2.0312 -0.01563,3.3867 -0.01563,4.0625 0,1.9922 0.04687,3.4297 0.14062,4.3125 0.10156,0.875 0.28125,1.5117 0.53125,1.9062 0.33203,0.52344 0.75781,0.92188 1.2812,1.2031 0.51953,0.28125 1.125,0.42188 1.8125,0.42188 1.6445,0 2.9414,-0.63281 3.8906,-1.9062 0.94531,-1.2695 1.4219,-3.0352 1.4219,-5.2969 v -12.25 h 7.9375 v 24.812 h -7.9375 v -3.5938 c -1.1992,1.4492 -2.4688,2.5156 -3.8125,3.2031 -1.3359,0.6875 -2.8047,1.0312 -4.4062,1.0312 -2.8672,0 -5.0469,-0.875 -6.5469,-2.625 -1.5,-1.7578 -2.25,-4.3164 -2.25,-7.6719 z"
         id="path1225" />
    </symbol>
    <symbol
       id="k"
       overflow="visible">
      <path
         d="m 23.859,-24.031 v 6.4688 c -1.0742,-0.73828 -2.1562,-1.2852 -3.25,-1.6406 -1.0859,-0.35156 -2.2109,-0.53125 -3.375,-0.53125 -2.2188,0 -3.9453,0.64844 -5.1719,1.9375 -1.2305,1.293 -1.8438,3.0938 -1.8438,5.4062 0,2.3242 0.61328,4.1328 1.8438,5.4219 1.2266,1.293 2.9531,1.9375 5.1719,1.9375 1.2383,0 2.4141,-0.17969 3.5312,-0.54688 1.1133,-0.375 2.1445,-0.92188 3.0938,-1.6406 v 6.4844 c -1.2422,0.46094 -2.5,0.80078 -3.7812,1.0312 -1.2734,0.22656 -2.5547,0.34375 -3.8438,0.34375 -4.4688,0 -7.9688,-1.1445 -10.5,-3.4375 -2.5234,-2.3008 -3.7812,-5.5 -3.7812,-9.5938 0,-4.082 1.2578,-7.2695 3.7812,-9.5625 2.5312,-2.3008 6.0312,-3.4531 10.5,-3.4531 1.3008,0 2.582,0.11719 3.8438,0.34375 1.2695,0.23047 2.5312,0.57422 3.7812,1.0312 z"
         id="path1228" />
    </symbol>
    <symbol
       id="j"
       overflow="visible">
      <path
         d="M 3.8125,-34.469 H 11.75 V 0 H 3.8125 Z"
         id="path1231" />
    </symbol>
    <symbol
       id="i"
       overflow="visible">
      <path
         d="M 11.75,-3.5938 V 9.4372 H 3.8125 v -34.25 H 11.75 v 3.625 c 1.082,-1.4453 2.2891,-2.5078 3.625,-3.1875 1.332,-0.6875 2.8633,-1.0312 4.5938,-1.0312 3.0508,0 5.5547,1.2148 7.5156,3.6406 1.9688,2.4297 2.9531,5.5547 2.9531,9.375 0,3.8359 -0.98438,6.9648 -2.9531,9.3906 -1.9609,2.4297 -4.4648,3.6406 -7.5156,3.6406 -1.7305,0 -3.2617,-0.34375 -4.5938,-1.0312 -1.3359,-0.6875 -2.543,-1.7539 -3.625,-3.2031 z m 5.2656,-16.062 c -1.6992,0 -3,0.625 -3.9062,1.875 -0.9062,1.25 -1.3594,3.0469 -1.3594,5.3906 0,2.3555 0.45312,4.1562 1.3594,5.4062 0.90625,1.2422 2.207,1.8594 3.9062,1.8594 1.6953,0 2.9922,-0.61719 3.8906,-1.8594 0.89453,-1.2383 1.3438,-3.0391 1.3438,-5.4062 0,-2.3633 -0.44922,-4.1641 -1.3438,-5.4062 -0.89844,-1.2383 -2.1953,-1.8594 -3.8906,-1.8594 z"
         id="path1234" />
    </symbol>
  </defs>
  <g
     id="g1291">
    <path
       d="m 106.58513,95.114441 c -7.69093,0 -13.948608,6.257489 -13.948608,13.948599 0,7.69113 6.257488,13.94861 13.948608,13.94861 7.69111,0 13.9486,-6.25748 13.9486,-13.94861 0,-7.69111 -6.25749,-13.948599 -13.9486,-13.948599 z m 0,24.409389 c -5.76968,0 -10.460972,-4.69206 -10.460972,-10.46098 0,-5.76968 4.692052,-10.46097 10.460972,-10.46097 5.76968,0 10.46097,4.69206 10.46097,10.46097 7.7e-4,5.76968 -4.69129,10.46098 -10.46097,10.46098 z"
       id="path1239"
       style="stroke-width:0.192124" />
    <path
       d="m 106.58513,102.08855 c -3.84633,0 -6.9743,3.12798 -6.9743,6.9743 0,3.84633 3.12797,6.9743 6.9743,6.9743 3.84633,0 6.9743,-3.12797 6.9743,-6.9743 0,-3.84632 -3.12797,-6.9743 -6.9743,-6.9743 z m 0,10.46098 c -1.92355,0 -3.48667,-1.56401 -3.48667,-3.48668 0,-1.92354 1.56401,-3.48667 3.48667,-3.48667 1.92354,0 3.48666,1.56401 3.48666,3.48667 7.8e-4,1.92278 -1.56325,3.48668 -3.48666,3.48668 z"
       id="path1241"
       style="stroke-width:0.192124" />
    <path
       d="m 125.72647,100.65531 1.45743,-3.0492 -9.13935,-9.139361 -3.04921,1.457445 c -0.27168,-0.120078 -0.54559,-0.235666 -0.82102,-0.341463 l -1.12274,-3.183503 h -4.87669 c -3.96852,-4.428653 -9.56873,-6.974303 -15.536505,-6.974303 -4.574861,0 -8.974316,1.492707 -12.600664,4.241723 -4.475149,-6.968929 -12.159348,-11.218332 -20.528467,-11.218332 -10.902286,0 -20.322906,7.107059 -23.379603,17.451031 -8.32359,0.375239 -14.978966,7.264023 -14.978966,15.676183 0,8.65309 7.038855,15.69194 15.691939,15.69194 h 49.890825 l 8.391984,8.39199 3.049207,-1.45744 c 0.27168,0.12008 0.54559,0.23566 0.82103,0.34146 l 1.12273,3.1835 h 12.93015 l 1.12273,-3.1835 c 0.27394,-0.10807 0.54711,-0.22138 0.82103,-0.34146 l 3.0492,1.45744 9.13935,-9.13935 -1.45743,-3.04921 c 0.12008,-0.27168 0.23566,-0.54559 0.34146,-0.82102 l 3.18504,-1.12197 v -12.93015 l -3.18351,-1.12273 c -0.10807,-0.27394 -0.22138,-0.54711 -0.34145,-0.81953 z m -101.088096,4.92011 c 0,-6.72819 5.476309,-12.205077 12.205076,-12.205077 0.09231,0 0.181617,0.0065 0.271684,0.01422 l 1.71711,0.07507 0.329455,-1.403411 C 41.393606,82.566251 49.759272,75.93508 59.50766,75.93508 c 7.788521,0 14.884443,4.294358 18.521928,11.207755 l 1.061925,2.01885 1.668329,-1.557265 c 3.24806,-3.028269 7.464419,-4.695133 11.875592,-4.695133 3.809433,0 7.444806,1.246561 10.427926,3.486667 h -2.94488 l -1.12274,3.183503 c -0.27393,0.10807 -0.54711,0.221384 -0.82102,0.341463 l -3.049211,-1.457434 -9.13935,9.139354 1.457434,3.04919 c -0.120068,0.27168 -0.235656,0.5456 -0.341453,0.82103 l -3.182738,1.12423 v 12.93016 l 3.183503,1.12273 c 0.10807,0.27394 0.221385,0.54711 0.341463,0.82103 l -0.147844,0.3107 H 36.842773 c -6.728769,-10e-4 -12.205077,-5.47785 -12.205077,-12.20662 z m 101.126506,7.48382 -2.42864,0.85629 -0.27168,0.80003 c -0.22665,0.66567 -0.50733,1.33735 -0.83153,1.99636 l -0.37299,0.76023 1.11447,2.32797 -5.65267,5.65268 -2.32797,-1.11448 -0.76024,0.373 c -0.65893,0.32421 -1.33061,0.60488 -1.99636,0.83153 l -0.80003,0.27168 -0.8563,2.42864 h -7.99275 l -0.85629,-2.42864 -0.80003,-0.27168 c -0.66567,-0.22665 -1.33735,-0.50732 -1.99636,-0.83153 l -0.76023,-0.373 -2.327974,1.11448 -5.652683,-5.65268 1.114474,-2.32797 -0.372989,-0.76023 c -0.324209,-0.65893 -0.604885,-1.33062 -0.831536,-1.99636 l -0.271682,-0.80003 -2.426336,-0.85629 v -7.99276 l 2.42864,-0.8563 0.271683,-0.80002 c 0.226651,-0.66568 0.507327,-1.33736 0.831536,-1.99636 l 0.372988,-0.76024 -1.114473,-2.32797 5.652683,-5.652681 2.327969,1.114473 0.76024,-0.372988 c 0.65893,-0.324209 1.33061,-0.604885 1.99636,-0.831536 l 0.80002,-0.271683 0.8563,-2.42864 h 7.99276 l 0.85629,2.42864 0.80002,0.271683 c 0.66568,0.226651 1.33736,0.507327 1.99637,0.831536 l 0.76023,0.372988 2.32797,-1.114473 5.65268,5.652681 -1.11448,2.32797 0.373,0.76024 c 0.32421,0.65893 0.60488,1.33061 0.83153,1.99636 l 0.27168,0.80002 2.42633,0.8563 z"
       id="path1243"
       style="stroke-width:0.192124" />
    <path
       d="M 47.305193,104.15389 V 88.14072 h -3.486672 v 16.01317 c -2.024028,0.72196 -3.486671,2.6394 -3.486671,4.90974 0,2.88416 2.346798,5.23096 5.230968,5.23096 2.884169,0 5.230966,-2.3468 5.230966,-5.23096 -7.69e-4,-2.27015 -1.463448,-4.18773 -3.488208,-4.90974 z m -1.743375,6.65307 c -0.962119,0 -1.743373,-0.78126 -1.743373,-1.74338 0,-0.96211 0.781254,-1.74337 1.743373,-1.74337 0.96212,0 1.743375,0.78126 1.743375,1.74337 0,0.96212 -0.781255,1.74338 -1.743375,1.74338 z"
       id="path1245"
       style="stroke-width:0.192124" />
    <path
       d="m 57.766362,91.948236 v -3.807904 h -3.486675 v 3.807904 c -2.024029,0.721969 -3.486672,2.639406 -3.486672,4.909733 0,2.270341 1.4627,4.187731 3.486672,4.909741 v 12.52554 h 3.486675 v -12.52554 c 2.02402,-0.72197 3.486667,-2.6394 3.486667,-4.909741 0,-2.270327 -1.462701,-4.187731 -3.486667,-4.909733 z m -1.74413,6.653074 c -0.962116,0 -1.743371,-0.78126 -1.743371,-1.743373 0,-0.962117 0.781255,-1.743377 1.743371,-1.743377 0.962127,0 1.743376,0.78126 1.743376,1.743377 7.65e-4,0.962873 -0.780506,1.743373 -1.743376,1.743373 z"
       id="path1247"
       style="stroke-width:0.192124" />
    <path
       d="m 71.714581,95.43529 v -7.294764 h -3.486678 v 7.294764 c -2.02403,0.72197 -3.486667,2.63941 -3.486667,4.90973 0,2.27014 1.462701,4.18774 3.486667,4.90974 v 9.03887 h 3.486678 v -9.03887 c 2.024031,-0.72197 3.486667,-2.6394 3.486667,-4.90974 0,-2.26937 -1.462701,-4.187728 -3.486667,-4.90973 z m -1.74413,6.65384 c -0.962117,0 -1.743366,-0.78125 -1.743366,-1.74337 0,-0.96212 0.781249,-1.74338 1.743366,-1.74338 0.962127,0 1.743376,0.78126 1.743376,1.74338 7.65e-4,0.96212 -0.780506,1.74337 -1.743376,1.74337 z"
       id="path1249"
       style="stroke-width:0.192124" />
    <path
       d="M 38.075544,38.088512 34.07763,34.090598 h 51.585364 c 0.962116,0 1.743366,0.781254 1.743366,1.743374 v 36.615034 h 3.486678 V 35.833972 c 0,-2.884169 -2.346797,-5.230967 -5.23097,-5.230967 H 34.076707 l 3.997914,-3.997913 -2.465338,-2.465339 -8.206587,8.206588 8.206587,8.206586 z"
       id="path1251"
       style="stroke-width:0.192124" />
    <path
       d="m 111.30562,64.962464 8.20659,-8.206583 -8.20659,-8.207358 -2.46534,2.465339 3.99791,3.99791 -6.2523,7.75e-4 c -2.88416,0 -5.23096,2.346797 -5.23096,5.230959 v 15.691941 h 3.48667 V 60.243506 c 0,-0.962116 0.78125,-1.743365 1.74337,-1.743365 h 6.25231 l -3.99715,3.997139 z"
       id="path1253"
       style="stroke-width:0.192124" />
    <path
       d="M 83.920231,75.934682 V 55.012354 c 0,-2.884171 -2.346796,-5.230969 -5.23097,-5.230969 l -34.14816,7.69e-4 3.997913,-3.997914 -2.465339,-2.465338 -8.206586,8.206586 8.206586,8.206588 2.465339,-2.464571 -3.997913,-3.997912 34.150088,-7.69e-4 c 0.962117,0 1.743366,0.781252 1.743366,1.743379 v 20.922328 z"
       id="path1255"
       style="stroke-width:0.192124" />
    <path
       d="m 97.86845,41.0649 c 0,-0.96212 0.78126,-1.743374 1.74338,-1.743374 h 23.68891 l -3.99791,3.997913 2.46534,2.465339 8.20658,-8.206588 -8.20658,-8.207355 -2.46534,2.465338 3.99791,3.997914 H 99.61183 c -2.884176,0 -5.230973,2.346798 -5.230973,5.230966 v 31.3835 h 3.486663 z"
       id="path1257"
       style="stroke-width:0.192124" />
  </g>
</svg>
