<?xml version="1.0" encoding="UTF-8" standalone="no"?>
<svg
   width="200"
   height="200"
   version="1.1"
   viewBox="0 0 150 150"
   id="svg966"
   sodipodi:docname="development.svg"
   inkscape:version="1.1.2 (b8e25be8, 2022-02-05)"
   xmlns:inkscape="http://www.inkscape.org/namespaces/inkscape"
   xmlns:sodipodi="http://sodipodi.sourceforge.net/DTD/sodipodi-0.dtd"
   xmlns="http://www.w3.org/2000/svg"
   xmlns:svg="http://www.w3.org/2000/svg">
  <sodipodi:namedview
     id="namedview968"
     pagecolor="#ffffff"
     bordercolor="#666666"
     borderopacity="1.0"
     inkscape:pageshadow="2"
     inkscape:pageopacity="0.0"
     inkscape:pagecheckerboard="0"
     inkscape:document-units="px"
     showgrid="false"
     inkscape:zoom="1.235508"
     inkscape:cx="104.0058"
     inkscape:cy="217.72421"
     inkscape:window-width="1736"
     inkscape:window-height="1116"
     inkscape:window-x="0"
     inkscape:window-y="25"
     inkscape:window-maximized="0"
     inkscape:current-layer="g964"
     units="px" />
  <defs
     id="defs884">
    <symbol
       id="t"
       overflow="visible">
      <path
         d="m 18.766,-1.125 c -0.96875,0.5 -1.9805,0.875 -3.0312,1.125 -1.043,0.25781 -2.1367,0.39062 -3.2812,0.39062 -3.3984,0 -6.0898,-0.94531 -8.0781,-2.8438 -1.9922,-1.9062 -2.9844,-4.4844 -2.9844,-7.7344 0,-3.2578 0.99219,-5.8359 2.9844,-7.7344 1.9883,-1.9062 4.6797,-2.8594 8.0781,-2.8594 1.1445,0 2.2383,0.13281 3.2812,0.39062 1.0508,0.25 2.0625,0.625 3.0312,1.125 v 4.2188 c -0.98047,-0.65625 -1.9453,-1.1406 -2.8906,-1.4531 -0.94922,-0.3125 -1.9492,-0.46875 -3,-0.46875 -1.875,0 -3.3516,0.60547 -4.4219,1.8125 -1.0742,1.1992 -1.6094,2.8555 -1.6094,4.9688 0,2.1055 0.53516,3.7617 1.6094,4.9688 1.0703,1.1992 2.5469,1.7969 4.4219,1.7969 1.0508,0 2.0508,-0.14844 3,-0.45312 0.94531,-0.3125 1.9102,-0.80078 2.8906,-1.4688 z"
         id="path824" />
    </symbol>
    <symbol
       id="b"
       overflow="visible">
      <path
         d="m 13.734,-11.141 c -0.4375,-0.19531 -0.87109,-0.34375 -1.2969,-0.4375 -0.41797,-0.10156 -0.83984,-0.15625 -1.2656,-0.15625 -1.2617,0 -2.2305,0.40625 -2.9062,1.2188 -0.67969,0.80469 -1.0156,1.9531 -1.0156,3.4531 v 7.0625 H 2.3591 v -15.312 h 4.8906 v 2.5156 c 0.625,-1 1.3438,-1.7266 2.1562,-2.1875 0.82031,-0.46875 1.8008,-0.70312 2.9375,-0.70312 0.16406,0 0.34375,0.01172 0.53125,0.03125 0.19531,0.01172 0.47656,0.03906 0.84375,0.07813 z"
         id="path827" />
    </symbol>
    <symbol
       id="a"
       overflow="visible">
      <path
         d="m 17.641,-7.7031 v 1.4062 H 6.188 c 0.125,1.1484 0.53906,2.0078 1.25,2.5781 0.70703,0.57422 1.7031,0.85938 2.9844,0.85938 1.0312,0 2.082,-0.14844 3.1562,-0.45312 1.082,-0.3125 2.1914,-0.77344 3.3281,-1.3906 v 3.7656 c -1.1562,0.4375 -2.3125,0.76562 -3.4688,0.98438 -1.1562,0.22656 -2.3125,0.34375 -3.4688,0.34375 -2.7734,0 -4.9297,-0.70312 -6.4688,-2.1094 -1.5312,-1.4062 -2.2969,-3.3789 -2.2969,-5.9219 0,-2.5 0.75391,-4.4609 2.2656,-5.8906 1.5078,-1.4375 3.582,-2.1562 6.2188,-2.1562 2.4062,0 4.332,0.73047 5.7812,2.1875 1.4453,1.4492 2.1719,3.3828 2.1719,5.7969 z m -5.0312,-1.625 c 0,-0.92578 -0.27344,-1.6719 -0.8125,-2.2344 -0.54297,-0.57031 -1.25,-0.85938 -2.125,-0.85938 -0.94922,0 -1.7188,0.26562 -2.3125,0.79688 -0.5937,0.53126 -0.96484,1.2969 -1.1094,2.2969 z"
         id="path830" />
    </symbol>
    <symbol
       id="e"
       overflow="visible">
      <path
         d="m 9.2188,-6.8906 c -1.0234,0 -1.793,0.17188 -2.3125,0.51562 -0.51172,0.34375 -0.76562,0.85547 -0.76562,1.5312 0,0.625 0.20703,1.1172 0.625,1.4688 0.41406,0.34375 0.98828,0.51562 1.7188,0.51562 0.92578,0 1.7031,-0.32812 2.3281,-0.98438 0.63281,-0.66406 0.95312,-1.4922 0.95312,-2.4844 v -0.5625 z m 7.4688,-1.8438 V 0 h -4.9219 v -2.2656 c -0.65625,0.92969 -1.3984,1.6055 -2.2188,2.0312 -0.82422,0.41406 -1.8242,0.625 -3,0.625 -1.5859,0 -2.8711,-0.45703 -3.8594,-1.375 -0.99219,-0.92578 -1.4844,-2.1289 -1.4844,-3.6094 0,-1.7891 0.61328,-3.1016 1.8438,-3.9375 1.2383,-0.84375 3.1797,-1.2656 5.8281,-1.2656 h 2.8906 v -0.39062 c 0,-0.76953 -0.30859,-1.332 -0.92188,-1.6875 -0.61719,-0.36328 -1.5703,-0.54688 -2.8594,-0.54688 -1.0547,0 -2.0312,0.10547 -2.9375,0.3125 -0.89844,0.21094 -1.7305,0.52344 -2.5,0.9375 v -3.7344 c 1.0391,-0.25 2.0859,-0.44141 3.1406,-0.57812 1.0625,-0.13281 2.125,-0.20312 3.1875,-0.20312 2.7578,0 4.75,0.54688 5.9688,1.6406 1.2266,1.0859 1.8438,2.8555 1.8438,5.3125 z"
         id="path833" />
    </symbol>
    <symbol
       id="d"
       overflow="visible">
      <path
         d="m 7.7031,-19.656 v 4.3438 H 12.75 v 3.5 H 7.7031 v 6.5 c 0,0.71094 0.14062,1.1875 0.42188,1.4375 0.28126,0.25 0.83594,0.375 1.6719,0.375 h 2.5156 v 3.5 h -4.1875 c -1.9375,0 -3.3125,-0.39844 -4.125,-1.2031 -0.80469,-0.8125 -1.2031,-2.1797 -1.2031,-4.1094 v -6.5 h -2.4219 v -3.5 h 2.4219 v -4.3438 z"
         id="path836" />
    </symbol>
    <symbol
       id="l"
       overflow="visible">
      <path
         d="m 12.766,-13.078 v -8.2031 h 4.9219 V -1e-4 H 12.766 v -2.2188 c -0.66797,0.90625 -1.4062,1.5703 -2.2188,1.9844 -0.8126,0.4141 -1.7578,0.625 -2.8281,0.625 -1.8867,0 -3.4336,-0.75 -4.6406,-2.25 -1.2109,-1.5 -1.8125,-3.4258 -1.8125,-5.7812 0,-2.3633 0.60156,-4.2969 1.8125,-5.7969 1.207,-1.5 2.7539,-2.25 4.6406,-2.25 1.0625,0 2,0.21484 2.8125,0.64062 0.82031,0.42969 1.5664,1.0859 2.2344,1.9688 z m -3.2188,9.9219 c 1.0391,0 1.8359,-0.37891 2.3906,-1.1406 0.55078,-0.76953 0.82812,-1.8828 0.82812,-3.3438 0,-1.457 -0.27734,-2.5664 -0.82812,-3.3281 -0.55469,-0.76953 -1.3516,-1.1562 -2.3906,-1.1562 -1.043,0 -1.8398,0.38672 -2.3906,1.1562 -0.55469,0.76172 -0.82812,1.8711 -0.82812,3.3281 0,1.4609 0.27344,2.5742 0.82812,3.3438 0.55078,0.76172 1.3477,1.1406 2.3906,1.1406 z"
         id="path839" />
    </symbol>
    <symbol
       id="k"
       overflow="visible">
      <path
         d="m 10.5,-3.1562 c 1.0508,0 1.8516,-0.37891 2.4062,-1.1406 0.55078,-0.76953 0.82812,-1.8828 0.82812,-3.3438 0,-1.457 -0.27734,-2.5664 -0.82812,-3.3281 -0.55469,-0.76953 -1.3555,-1.1562 -2.4062,-1.1562 -1.0547,0 -1.8594,0.38672 -2.4219,1.1562 -0.55469,0.77344 -0.82812,1.8828 -0.82812,3.3281 0,1.4492 0.27344,2.5586 0.82812,3.3281 0.5625,0.77344 1.3672,1.1562 2.4219,1.1562 z m -3.25,-9.9219 c 0.67578,-0.88281 1.4219,-1.5391 2.2344,-1.9688 0.82031,-0.42578 1.7656,-0.64062 2.8281,-0.64062 1.8945,0 3.4453,0.75 4.6562,2.25 1.207,1.5 1.8125,3.4336 1.8125,5.7969 0,2.3555 -0.60547,4.2812 -1.8125,5.7812 -1.2109,1.5 -2.7617,2.25 -4.6562,2.25 -1.0625,0 -2.0078,-0.21094 -2.8281,-0.625 C 8.6719,-0.6602 7.9258,-1.32032 7.25,-2.21882 V -2e-5 H 2.3594 v -21.281 H 7.25 Z"
         id="path842" />
    </symbol>
    <symbol
       id="g"
       overflow="visible">
      <path
         d="m 0.34375,-15.312 h 4.8906 l 4.125,10.391 3.5,-10.391 h 4.8906 l -6.4375,16.766 c -0.64844,1.6953 -1.4023,2.8828 -2.2656,3.5625 -0.86719,0.6875 -2,1.0312 -3.4062,1.0312 H 2.79685 V 2.8289 h 1.5312 c 0.83203,0 1.4375,-0.13672 1.8125,-0.40625 C 6.52336,2.16093 6.82024,1.69218 7.03117,1.01645 L 7.17179,0.59457 Z"
         id="path845" />
    </symbol>
    <symbol
       id="f"
       overflow="visible">
      <path
         d="m 0.14062,-20.406 h 18.812 v 3.9688 h -6.7656 V 8e-4 h -5.2656 v -16.438 h -6.7812 z"
         id="path848" />
    </symbol>
    <symbol
       id="c"
       overflow="visible">
      <path
         d="m 9.6406,-12.188 c -1.0859,0 -1.9141,0.39062 -2.4844,1.1719 -0.57422,0.78125 -0.85938,1.9062 -0.85938,3.375 0,1.4688 0.28516,2.5938 0.85938,3.375 0.57031,0.77344 1.3984,1.1562 2.4844,1.1562 1.0625,0 1.875,-0.38281 2.4375,-1.1562 0.57031,-0.78125 0.85938,-1.9062 0.85938,-3.375 0,-1.4688 -0.28906,-2.5938 -0.85938,-3.375 -0.5625,-0.78125 -1.375,-1.1719 -2.4375,-1.1719 z m 0,-3.5 c 2.6328,0 4.6914,0.71484 6.1719,2.1406 1.4766,1.418 2.2188,3.3867 2.2188,5.9062 0,2.5117 -0.74219,4.4805 -2.2188,5.9062 C 14.332,-0.317 12.2734,0.39 9.6406,0.39 6.9922,0.39 4.9258,-0.31703 3.4375,-1.735 1.9453,-3.1608 1.2031,-5.1295 1.2031,-7.6412 c 0,-2.5195 0.74219,-4.4883 2.2344,-5.9062 1.4883,-1.4258 3.5547,-2.1406 6.2031,-2.1406 z"
         id="path851" />
    </symbol>
    <symbol
       id="j"
       overflow="visible">
      <path
         d="m 16.547,-12.766 c 0.61328,-0.94531 1.3477,-1.6719 2.2031,-2.1719 0.85156,-0.5 1.7891,-0.75 2.8125,-0.75 1.7578,0 3.0977,0.54688 4.0156,1.6406 0.92578,1.0859 1.3906,2.6562 1.3906,4.7188 V -4e-4 h -4.9219 v -7.9844 -0.35938 c 0.0078,-0.13281 0.01563,-0.32031 0.01563,-0.5625 0,-1.082 -0.16406,-1.8633 -0.48438,-2.3438 -0.3125,-0.48828 -0.82422,-0.73438 -1.5312,-0.73438 -0.92969,0 -1.6484,0.38672 -2.1562,1.1562 -0.51172,0.76172 -0.77344,1.8672 -0.78125,3.3125 v 7.5156 h -4.9219 v -7.9844 c 0,-1.6953 -0.14844,-2.7852 -0.4375,-3.2656 -0.29297,-0.48828 -0.8125,-0.73438 -1.5625,-0.73438 -0.9375,0 -1.6641,0.38672 -2.1719,1.1562 -0.51172,0.76172 -0.76562,1.8594 -0.76562,3.2969 v 7.5312 h -4.9219 v -15.312 h 4.9219 v 2.2344 c 0.60156,-0.86328 1.2891,-1.5156 2.0625,-1.9531 0.78125,-0.4375 1.6406,-0.65625 2.5781,-0.65625 1.0625,0 2,0.25781 2.8125,0.76562 0.8125,0.51172 1.4258,1.2305 1.8438,2.1562 z"
         id="path854" />
    </symbol>
    <symbol
       id="i"
       overflow="visible">
      <path
         d="M 2.3594,-15.312 H 7.25 V 0 H 2.3594 Z m 0,-5.9688 H 7.25 v 4 H 2.3594 Z"
         id="path857" />
    </symbol>
    <symbol
       id="h"
       overflow="visible">
      <path
         d="M 17.75,-9.3281 V 0 h -4.9219 v -7.1406 c 0,-1.3203 -0.03125,-2.2344 -0.09375,-2.7344 -0.0625,-0.5 -0.16797,-0.86719 -0.3125,-1.1094 -0.1875,-0.3125 -0.44922,-0.55469 -0.78125,-0.73438 -0.32422,-0.17578 -0.69531,-0.26562 -1.1094,-0.26562 -1.0234,0 -1.8242,0.39844 -2.4062,1.1875 -0.58594,0.78125 -0.875,1.8711 -0.875,3.2656 V -1e-4 H 2.3594 v -15.312 H 7.25 v 2.2344 c 0.73828,-0.88281 1.5195,-1.5391 2.3438,-1.9688 0.83203,-0.42578 1.75,-0.64062 2.75,-0.64062 1.7695,0 3.1133,0.54688 4.0312,1.6406 0.91406,1.0859 1.375,2.6562 1.375,4.7188 z"
         id="path860" />
    </symbol>
    <symbol
       id="s"
       overflow="visible">
      <path
         d="m 12.422,-21.281 v 3.2188 H 9.7189 c -0.6875,0 -1.1719,0.125 -1.4531,0.375 -0.27344,0.25 -0.40625,0.6875 -0.40625,1.3125 v 1.0625 h 4.1875 v 3.5 H 7.85955 V -2e-4 h -4.8906 v -11.812 h -2.4375 v -3.5 h 2.4375 v -1.0625 c 0,-1.6641 0.46094,-2.8984 1.3906,-3.7031 0.92578,-0.80078 2.3672,-1.2031 4.3281,-1.2031 z"
         id="path863" />
    </symbol>
    <symbol
       id="r"
       overflow="visible">
      <path
         d="M 17.75,-9.3281 V 0 h -4.9219 v -7.1094 c 0,-1.3438 -0.03125,-2.2656 -0.09375,-2.7656 -0.0625,-0.5 -0.16797,-0.86719 -0.3125,-1.1094 -0.1875,-0.3125 -0.44922,-0.55469 -0.78125,-0.73438 -0.32422,-0.17578 -0.69531,-0.26562 -1.1094,-0.26562 -1.0234,0 -1.8242,0.39844 -2.4062,1.1875 -0.58594,0.78125 -0.875,1.8711 -0.875,3.2656 V -1e-4 H 2.3594 v -21.281 H 7.25 v 8.2031 c 0.73828,-0.88281 1.5195,-1.5391 2.3438,-1.9688 0.83203,-0.42578 1.75,-0.64062 2.75,-0.64062 1.7695,0 3.1133,0.54688 4.0312,1.6406 0.91406,1.0859 1.375,2.6562 1.375,4.7188 z"
         id="path866" />
    </symbol>
    <symbol
       id="q"
       overflow="visible">
      <path
         d="m 2.5781,-20.406 h 5.875 l 7.4219,14 v -14 h 4.9844 V 0 h -5.875 L 7.5625,-14 V 0 H 2.5781 Z"
         id="path869" />
    </symbol>
    <symbol
       id="p"
       overflow="visible">
      <path
         d="m 2.1875,-5.9688 v -9.3438 h 4.9219 v 1.5312 c 0,0.83594 -0.00781,1.875 -0.015625,3.125 -0.011719,1.25 -0.015625,2.0859 -0.015625,2.5 0,1.2422 0.03125,2.1328 0.09375,2.6719 0.070313,0.54297 0.17969,0.93359 0.32812,1.1719 0.20703,0.32422 0.47266,0.57422 0.79688,0.75 0.32031,0.16797 0.69141,0.25 1.1094,0.25 1.0195,0 1.8203,-0.39062 2.4062,-1.1719 0.58203,-0.78125 0.875,-1.8672 0.875,-3.2656 v -7.5625 h 4.8906 V -6e-4 H 12.6875 V -2.2194 C 11.94531,-1.32096 11.1641,-0.6608 10.3437,-0.235 9.51948,0.17906 8.6093,0.39 7.6093,0.39 5.8476,0.39 4.5038,-0.14906 3.5781,-1.235 2.64841,-2.317 2.1875,-3.8952 2.1875,-5.9694 Z"
         id="path872" />
    </symbol>
    <symbol
       id="o"
       overflow="visible">
      <path
         d="m 2.5781,-20.406 h 8.7344 c 2.5938,0 4.582,0.57812 5.9688,1.7344 1.3945,1.1484 2.0938,2.7891 2.0938,4.9219 0,2.1367 -0.69922,3.7812 -2.0938,4.9375 -1.3867,1.1562 -3.375,1.7344 -5.9688,1.7344 H 7.8281 V 3e-4 h -5.25 z m 5.25,3.8125 v 5.7031 H 10.75 c 1.0195,0 1.8047,-0.25 2.3594,-0.75 0.5625,-0.5 0.84375,-1.2031 0.84375,-2.1094 0,-0.91406 -0.28125,-1.6172 -0.84375,-2.1094 -0.55469,-0.48828 -1.3398,-0.73438 -2.3594,-0.73438 z"
         id="path875" />
    </symbol>
    <symbol
       id="n"
       overflow="visible">
      <path
         d="M 2.3594,-15.312 H 7.25 v 15.031 c 0,2.0508 -0.49609,3.6172 -1.4844,4.7031 -0.98047,1.082 -2.4062,1.625 -4.2812,1.625 H -0.9375 V 2.8283 h 0.85938 c 0.92578,0 1.5625,-0.21094 1.9062,-0.625 0.35156,-0.41797 0.53125,-1.2461 0.53125,-2.4844 z m 0,-5.9688 H 7.25 v 4 H 2.3594 Z"
         id="path878" />
    </symbol>
    <symbol
       id="m"
       overflow="visible">
      <path
         d="m 14.719,-14.828 v 3.9844 c -0.65625,-0.45703 -1.3242,-0.79688 -2,-1.0156 -0.66797,-0.21875 -1.3594,-0.32812 -2.0781,-0.32812 -1.3672,0 -2.4336,0.40234 -3.2031,1.2031 -0.76172,0.79297 -1.1406,1.9062 -1.1406,3.3438 0,1.4297 0.37891,2.543 1.1406,3.3438 0.76953,0.79297 1.8359,1.1875 3.2031,1.1875 0.75781,0 1.4844,-0.10938 2.1719,-0.32812 0.6875,-0.22656 1.3203,-0.56641 1.9062,-1.0156 v 4 c -0.76172,0.28125 -1.5391,0.48828 -2.3281,0.625 -0.78125,0.14453 -1.5742,0.21875 -2.375,0.21875 -2.7617,0 -4.9219,-0.70703 -6.4844,-2.125 -1.5547,-1.4141 -2.3281,-3.3828 -2.3281,-5.9062 0,-2.5312 0.77344,-4.5039 2.3281,-5.9219 1.5625,-1.4141 3.7227,-2.125 6.4844,-2.125 0.80078,0 1.5938,0.07422 2.375,0.21875 0.78125,0.13672 1.5547,0.35156 2.3281,0.64062 z"
         id="path881" />
    </symbol>
  </defs>
  <g
     id="g964">
    <path
       d="m 17.687253,26.826678 c -0.88158,0 -1.59574,0.71505 -1.59574,1.59574 v 76.595292 c 0,0.88157 0.71416,1.59573 1.59574,1.59573 h 11.39719 c 0.42299,0 0.82903,-0.1683 1.12823,-0.4675 0.2992,-0.29921 0.46751,-0.70527 0.46751,-1.12823 0,-0.42297 -0.1683,-0.82903 -0.46751,-1.12823 -0.2992,-0.2992 -0.70527,-0.46751 -1.12823,-0.46751 h -9.80146 V 42.784028 H 130.98445 V 103.42197 H 79.009073 c -0.88069,0 -1.59574,0.71416 -1.59574,1.59574 0,0.42298 0.1683,0.82903 0.46751,1.12823 0.2992,0.2992 0.70527,0.4675 1.12823,0.4675 h 53.571107 c 0.88158,0 1.59574,-0.71416 1.59574,-1.59573 V 28.422418 c 0,-0.88069 -0.71416,-1.59574 -1.59574,-1.59574 z m 1.59573,3.19147 H 130.98445 v 3.19147 H 49.601953 c -0.88158,0 -1.59574,0.71416 -1.59574,1.59574 0,0.42298 0.1683,0.82903 0.46751,1.12823 0.2992,0.2992 0.70527,0.4675 1.12823,0.4675 h 81.382497 v 3.19147 H 19.282983 Z m 7.4995,2.23421 c -1.56724,0 -2.87278,1.30456 -2.87278,2.87278 0,1.56724 1.30456,2.87278 2.87278,2.87278 1.56724,0 2.87278,-1.30456 2.87278,-2.87278 0,-1.56724 -1.30456,-2.87278 -2.87278,-2.87278 z m 6.95376,0 c -1.56724,0 -2.87278,1.30456 -2.87278,2.87278 0,1.56724 1.30456,2.87278 2.87278,2.87278 1.56724,0 2.87278,-1.30456 2.87278,-2.87278 0,-1.56724 -1.30456,-2.87278 -2.87278,-2.87278 z m 6.95102,0 c -1.56724,0 -2.87278,1.30456 -2.87278,2.87278 0,1.56724 1.30456,2.87278 2.87278,2.87278 1.56724,0 2.87278,-1.30456 2.87278,-2.87278 0,-1.56724 -1.30456,-2.87278 -2.87278,-2.87278 z m -13.90569,2.55295 c 0.15761,0 0.31878,0.16207 0.31878,0.31878 0,0.15762 -0.16207,0.31879 -0.31878,0.31879 -0.15762,0 -0.31878,-0.16207 -0.31878,-0.31879 0,-0.15761 0.16206,-0.31878 0.31878,-0.31878 z m 6.95376,0 c 0.15761,0 0.31878,0.16207 0.31878,0.31878 0,0.15762 -0.16207,0.31879 -0.31878,0.31879 -0.15762,0 -0.31879,-0.16207 -0.31879,-0.31879 0,-0.15761 0.16207,-0.31878 0.31879,-0.31878 z m 6.95102,0 c 0.15761,0 0.31878,0.16207 0.31878,0.31878 0,0.15762 -0.16207,0.31879 -0.31878,0.31879 -0.15762,0 -0.31878,-0.16207 -0.31878,-0.31879 0,-0.15761 0.16206,-0.31878 0.31878,-0.31878 z m 65.924377,32.49145 h 0.002 c -0.61176,0.007 -1.16652,0.36333 -1.42654,0.91718 l -1.09973,2.33844 c -0.56991,0.004 -1.17453,-0.01 -1.78007,-0.003 l -1.09973,-2.33661 9.1e-4,9.1e-4 c -0.26357,-0.55744 -0.82459,-0.91363 -1.441677,-0.91452 -0.11487,-9.1e-4 -0.22885,0.0107 -0.34105,0.0347 -2.07927,0.45148 -4.06229,1.2716 -5.85225,2.42392 -0.62512,0.40249 -0.88958,1.18523 -0.63581,1.88425 l 0.87266,2.42574 c -0.39982,0.40696 -0.83616,0.82814 -1.25912,1.26182 l -2.42826,-0.87533 v 9.1e-4 c -0.69991,-0.25201 -1.48086,0.0125 -1.88246,0.63848 -1.14962,1.78809 -1.96973,3.76935 -2.42119,5.84677 -0.15761,0.72663 0.20748,1.46573 0.8798,1.78274 l 2.33388,1.09706 c -0.008,0.60552 0.007,1.21194 0.003,1.78274 l -2.33661,1.09973 v -9.1e-4 c -0.67231,0.317 -1.03741,1.0561 -0.8798,1.78273 0.45148,2.07927 1.2716,4.06229 2.42393,5.85225 0.40249,0.62423 1.18344,0.8878 1.88246,0.63581 l 2.42825,-0.87533 c 0.42299,0.43365 0.86109,0.85486 1.26182,1.26181 l -0.87533,2.42826 c -0.25201,0.69991 0.0125,1.47997 0.63848,1.88246 1.78809,1.149622 3.76935,1.969732 5.84677,2.421192 0.726627,0.15761 1.465727,-0.20748 1.782727,-0.8798 l 1.09707,-2.333882 c 0.60643,0.008 1.21194,-0.007 1.78273,-0.003 l 1.09974,2.336612 -9.1e-4,-9.1e-4 c 0.317,0.67319 1.0561,1.0383 1.78273,0.88068 2.07927,-0.45147 4.05978,-1.27159 5.84951,-2.423922 0.62512,-0.4016 0.89047,-1.18255 0.63848,-1.88246 l -0.87533,-2.42826 c 0.43365,-0.42298 0.85219,-0.86197 1.25912,-1.26181 l 2.43099,0.87533 c 0.69991,0.25201 1.48087,-0.0134 1.88247,-0.63848 1.14961,-1.78809 1.96973,-3.76935 2.42118,-5.84677 0.15762,-0.72663 -0.20748,-1.46573 -0.87979,-1.78274 l -2.33844,-1.09973 c -0.004,-0.56991 0.01,-1.17542 0.003,-1.78007 l 2.33661,-1.09973 -9.1e-4,9.1e-4 c 0.67231,-0.317 1.03741,-1.0561 0.8798,-1.78273 -0.45148,-2.07927 -1.27427,-4.05978 -2.42575,-5.84951 -0.40249,-0.62512 -1.18344,-0.89047 -1.88247,-0.63848 l -2.42825,0.87533 c -0.40696,-0.39982 -0.82547,-0.83883 -1.25912,-1.26182 l 0.87532,-2.42825 h -9.1e-4 c 0.25201,-0.69991 -0.0125,-1.48086 -0.63847,-1.88246 -1.78809,-1.14962 -3.76936,-1.96973 -5.84678,-2.42119 -0.11665,-0.0258 -0.23598,-0.0383 -0.35619,-0.0374 z m -7.657247,3.63052 0.89227,1.89761 h 0.003 c 0.253787,0.53696 0.784507,0.88869 1.378467,0.91185 1.70616,0.0712 2.89489,-0.0659 3.75773,-0.003 v 9.1e-4 c 0.65806,0.0481 1.27873,-0.31345 1.56013,-0.91007 l 0.89226,-1.8976 c 0.86822,0.26804 1.70169,0.61531 2.50576,1.04007 l -0.70793,1.96973 9.1e-4,-9.1e-4 c -0.20125,0.55922 -0.0757,1.18345 0.32591,1.62068 1.15673,1.25646 2.0953,2.00089 2.66078,2.6553 0.43187,0.50045 1.12645,0.68211 1.74801,0.45948 l 1.96973,-0.7106 c 0.42565,0.80498 0.77382,1.64114 1.04186,2.51123 l -1.8976,0.89227 c -0.53697,0.25379 -0.88869,0.7845 -0.91185,1.37846 -0.0712,1.70616 0.0659,2.89489 0.003,3.75773 h -9.1e-4 c -0.0481,0.65806 0.31345,1.27873 0.91007,1.56013 l 1.89761,0.89226 c -0.26804,0.86911 -0.61443,1.70438 -1.04008,2.5085 l -1.96973,-0.7106 9.1e-4,9.1e-4 c -0.62245,-0.22529 -1.31881,-0.0428 -1.75068,0.45859 -0.56546,0.6545 -1.50134,1.39893 -2.65804,2.6553 -0.4016,0.43723 -0.52805,1.06144 -0.32681,1.62068 l 0.71061,1.96973 c -0.80589,0.42565 -1.64204,0.77381 -2.51283,1.04185 l -0.89047,-1.89493 c -0.2805,-0.59752 -0.90115,-0.96082 -1.56012,-0.91274 -0.86289,0.0632 -2.05077,-0.073 -3.75773,-0.003 v 9.1e-4 c -0.59396,0.024 -1.12556,0.37666 -1.378467,0.91452 l -0.89226,1.89493 c -0.86911,-0.26803 -1.70438,-0.61442 -2.5085,-1.04007 l 0.71061,-1.96973 -9.2e-4,9.1e-4 c 0.22351,-0.62156 0.041,-1.31701 -0.45859,-1.74802 -0.6545,-0.56546 -1.39893,-1.50402 -2.6553,-2.66077 -0.43723,-0.4016 -1.06144,-0.52805 -1.62068,-0.32681 l -1.96973,0.71061 c -0.42565,-0.80498 -0.77381,-1.64026 -1.04185,-2.51123 l 1.89493,-0.89227 c 0.59752,-0.28051 0.96082,-0.90116 0.91274,-1.56013 -0.0632,-0.86288 0.073,-2.05077 0.003,-3.75773 h -9.1e-4 c -0.0241,-0.59395 -0.37666,-1.12556 -0.91452,-1.37846 l -1.89493,-0.89047 c 0.26803,-0.8691 0.61442,-1.70438 1.04007,-2.50849 l 1.96973,0.70793 h -9.1e-4 c 0.55922,0.20125 1.18344,0.0757 1.62068,-0.32591 1.25645,-1.15673 2.00089,-2.0953 2.6553,-2.66078 0.50044,-0.43187 0.683,-1.12645 0.45948,-1.74801 l -0.7106,-1.96973 c 0.80498,-0.42565 1.64025,-0.77382 2.51123,-1.04186 z m 4.241237,5.93682 c -4.376647,0 -7.996457,3.51199 -7.996457,7.84874 0,4.33653 3.6189,7.85125 7.996457,7.85125 4.37664,0 7.99372,-3.51472 7.99372,-7.85125 0,-4.33652 -3.61708,-7.84874 -7.99372,-7.84874 z m -43.686667,2.39885 0.002,-9.1e-4 c -0.61176,0.007 -1.16564,0.36332 -1.42565,0.91807 l -1.91721,4.06958 c -1.1968,-0.0143 -2.43806,0.003 -3.81221,-0.003 l -1.91274,-4.06684 c -0.26357,-0.55833 -0.82459,-0.91452 -1.44168,-0.91541 -0.11487,-9.1e-4 -0.22885,0.0107 -0.34105,0.0347 -3.08912,0.67053 -6.03393,1.8896 -8.69197,3.60021 -0.62423,0.40338 -0.8878,1.18344 -0.63581,1.88246 l 1.5236,4.23326 c -0.85574,0.83528 -1.7204,1.72574 -2.69542,2.69269 l -4.23143,-1.52094 v 9.1e-4 c -0.69903,-0.25201 -1.47998,0.0125 -1.88247,0.63848 -1.70794,2.65621 -2.92521,5.59761 -3.59565,8.68399 h 9.1e-4 c -0.15761,0.724852 0.2066,1.463062 0.87713,1.780062 l 4.06959,1.91452 c 0.005,1.374 -0.0116,2.61632 0.003,3.81221 l -4.07117,1.91721 -9.2e-4,9.1e-4 c -0.67052,0.31701 -1.03474,1.05522 -0.87713,1.78007 0.67053,3.08911 1.88961,6.03393 3.60021,8.69197 0.40249,0.62512 1.18255,0.88957 1.88247,0.63847 l 4.22892,-1.52627 c 0.97595,0.96795 1.8415,1.8593 2.69816,2.69542 l -1.5236,4.23326 h -9.2e-4 c -0.25112,0.69991 0.0134,1.48087 0.63848,1.88247 2.65622,1.70794 5.59761,2.92521 8.68399,3.59565 h 9.1e-4 c 0.72663,0.15761 1.46573,-0.20749 1.78274,-0.8798 l 1.91274,-4.06685 c 1.37399,-0.005 2.61541,0.0116 3.81221,-0.003 l 1.9172,4.06958 c 0.31612,0.6723 1.05611,1.03741 1.78274,0.87979 3.08911,-0.67052 6.03119,-1.8896 8.68923,-3.6002 0.62512,-0.40249 0.88958,-1.18345 0.63759,-1.88247 l -1.52361,-4.23143 c 0.96795,-0.97595 1.85931,-1.83884 2.69542,-2.69543 l 4.23144,1.52094 c 0.69991,0.25202 1.47997,-0.0125 1.88246,-0.63758 1.70794,-2.65622 2.92522,-5.59762 3.59565,-8.684 v -9.1e-4 c 0.15583,-0.72574 -0.20837,-1.46395 -0.88068,-1.78006 l -4.06958,-1.91721 c 0.0142,-1.19591 -0.003,-2.43897 0.003,-3.81221 l 4.06685,-1.91452 v -9.1e-4 c 0.6723,-0.31612 1.03652,-1.05433 0.88068,-1.780072 -0.67052,-3.08911 -1.8896,-6.03393 -3.6002,-8.69197 h -9.1e-4 c -0.40161,-0.62511 -1.18256,-0.88957 -1.88247,-0.63847 l -4.23143,1.52627 c -0.83528,-0.85574 -1.72575,-1.72307 -2.69269,-2.69816 l 1.52094,-4.23143 9.1e-4,9.1e-4 c 0.25201,-0.69991 -0.0134,-1.48086 -0.63848,-1.88247 -2.65621,-1.70793 -5.59761,-2.92521 -8.68399,-3.59564 -0.11754,-0.0258 -0.23687,-0.0383 -0.35708,-0.0374 z m 43.686667,0.79253 c 2.69109,0 4.80225,2.08549 4.80225,4.65727 0,2.57178 -2.11132,4.65977 -4.80225,4.65977 -2.69094,0 -4.804987,-2.08817 -4.804987,-4.65977 0,-2.5716 2.113977,-4.65727 4.804987,-4.65727 z m -55.052867,2.73737 1.75513,3.72764 h 0.002 c 0.25379,0.53785 0.78451,0.89047 1.37936,0.91541 2.54679,0.10596 4.34815,-0.10864 5.78978,-0.003 h -9.1e-4 c 0.65894,0.0481 1.27962,-0.31523 1.56101,-0.91274 l 1.75246,-3.72764 c 1.86822,0.51203 3.65538,1.25113 5.33842,2.20928 l -1.39627,3.87718 c -0.20124,0.55832 -0.0748,1.18344 0.32681,1.62067 1.72663,1.87535 3.15135,2.99725 4.09625,4.09169 0.43188,0.49956 1.12645,0.68211 1.74802,0.45859 l 3.87718,-1.39626 c 0.95992,1.68477 1.69902,3.47118 2.21194,5.34115 l -3.72764,1.755132 c -0.53786,0.25201 -0.89047,0.78273 -0.91541,1.37579 -0.10596,2.5468 0.10864,4.34815 0.003,5.78979 -0.0481,0.65894 0.31434,1.27962 0.91274,1.56101 l 3.73014,1.75513 c -0.51202,1.86822 -1.25112,3.65264 -2.20927,5.33568 l -3.87992,-1.39627 c -0.62156,-0.22351 -1.31611,-0.041 -1.74801,0.4586 -0.94479,1.0944 -2.36784,2.21551 -4.09443,4.09169 h 9.1e-4 c -0.40426,0.43723 -0.53071,1.06324 -0.32947,1.62334 l 1.39894,3.87718 c -1.68389,0.95904 -3.47187,1.69903 -5.34116,2.21194 l -1.75512,-3.72764 v -9.1e-4 c -0.2814,-0.59751 -0.90205,-0.96081 -1.56102,-0.91274 -1.44168,0.10597 -3.24231,-0.10774 -5.78978,-0.003 h 9.1e-4 c -0.59485,0.0249 -1.12557,0.37755 -1.37936,0.9154 l -1.75512,3.72764 c -1.86733,-0.51203 -3.65264,-1.25113 -5.33569,-2.20927 l 1.39627,-3.87718 c 0.22351,-0.62068 0.041,-1.31612 -0.45859,-1.74713 -1.0944,-0.94479 -2.21552,-2.37035 -4.09169,-4.09625 v -9.1e-4 c -0.43723,-0.4016 -1.06144,-0.52805 -1.62068,-0.32681 l -3.87718,1.39627 c -0.95903,-1.68389 -1.7008,-3.46936 -2.21371,-5.33842 l 3.73014,-1.75779 -9.1e-4,9.1e-4 c 0.59751,-0.28229 0.95904,-0.90294 0.91007,-1.56102 -0.10597,-1.44168 0.11042,-3.2423 0.005,-5.78978 -0.0249,-0.59307 -0.37755,-1.12379 -0.9154,-1.3758 l -3.73015,-1.757792 c 0.51203,-1.86644 1.25113,-3.65104 2.20928,-5.33318 l 3.87991,1.39627 v -9.1e-4 c 0.55922,0.20125 1.18345,0.0757 1.62068,-0.32592 1.87535,-1.72663 2.99724,-3.15135 4.09169,-4.09625 v -9.1e-4 c 0.49956,-0.43277 0.68122,-1.12823 0.45592,-1.74979 l -1.39626,-3.87719 c 1.68388,-0.95903 3.47186,-1.69902 5.34115,-2.21193 z m 6.11851,11.1355 c -6.26098,0 -11.40427,5.00628 -11.40427,11.185192 0,6.17823 5.14329,11.18519 11.40427,11.18519 6.26098,0 11.407,-5.00627 11.407,-11.18519 0,-6.178232 -5.14602,-11.185192 -11.407,-11.185192 z m 0,3.19147 c 4.5752,0 8.21553,3.579692 8.21553,7.993722 0,4.41403 -3.64033,7.99372 -8.21553,7.99372 -4.5752,0 -8.2128,-3.57969 -8.2128,-7.99372 0,-4.41403 3.6376,-7.993722 8.2128,-7.993722 z"
       id="path886"
       style="stroke-width:0.227962" />
  </g>
</svg>
